<svg width="14" height="14" viewBox="0 0 14 14" fill="none" xmlns="http://www.w3.org/2000/svg">
<path d="M8.25538 6.73346L13.1508 1.83808C13.5692 1.41962 13.5692 0.736539 13.1508 0.315001C12.7323 -0.106537 12.0462 -0.10346 11.6277 0.315001L6.73231 5.21039L1.83692 0.315001C1.41846 -0.10346 0.735385 -0.10346 0.313846 0.315001C-0.104615 0.736539 -0.104615 1.41962 0.313846 1.83808L5.20923 6.73346L0.313846 11.6288C-0.104615 12.0473 -0.104615 12.7304 0.313846 13.1519C0.732308 13.5735 1.41846 13.5704 1.83692 13.1519L6.73231 8.25654L11.6277 13.1519C11.8369 13.3612 12.1138 13.4658 12.3908 13.4658C12.6677 13.4658 12.9415 13.3612 13.1508 13.1519C13.5692 12.7335 13.5692 12.0504 13.1508 11.6288L8.25538 6.73346Z" fill="black"/>
</svg>
