<svg width="259" height="188" viewBox="0 0 259 188" fill="none" xmlns="http://www.w3.org/2000/svg">
<path d="M20.88 152C18.24 152 15.8 151.36 13.56 150.08C11.4 148.8 9.68 147.08 8.4 144.92C7.12 142.68 6.48 140.24 6.48 137.6V65.6H16.2V137.6C16.2 138.88 16.64 140 17.52 140.96C18.48 141.84 19.6 142.28 20.88 142.28H78.48C79.76 142.28 80.84 141.84 81.72 140.96C82.68 140 83.16 138.88 83.16 137.6V65.6H92.88V137.6C92.88 140.24 92.24 142.68 90.96 144.92C89.68 147.08 87.92 148.8 85.68 150.08C83.52 151.36 81.12 152 78.48 152H20.88Z" fill="white"/>
<path d="M83 107.018H114.72M114.72 107.018L148 68M114.72 107.018L148 149" stroke="white" stroke-width="8"/>
<path d="M173.35 152C170.05 152 167 151.2 164.2 149.6C161.5 147.9 159.3 145.7 157.6 143C156 140.2 155.2 137.15 155.2 133.85V132.65H167.5V133.85C167.5 135.45 168.05 136.85 169.15 138.05C170.35 139.15 171.75 139.7 173.35 139.7H225.55C227.15 139.7 228.5 139.15 229.6 138.05C230.8 136.85 231.4 135.45 231.4 133.85V120.5C231.4 118.9 230.8 117.55 229.6 116.45C228.5 115.25 227.15 114.65 225.55 114.65H173.35C170.05 114.65 167 113.85 164.2 112.25C161.5 110.55 159.3 108.35 157.6 105.65C156 102.85 155.2 99.8 155.2 96.5V83.15C155.2 79.85 156 76.85 157.6 74.15C159.3 71.35 161.5 69.15 164.2 67.55C167 65.85 170.05 65 173.35 65H225.55C228.95 65 232 65.85 234.7 67.55C237.5 69.15 239.7 71.35 241.3 74.15C243 76.85 243.85 79.85 243.85 83.15V84.35H231.4V83.15C231.4 81.55 230.8 80.2 229.6 79.1C228.5 77.9 227.15 77.3 225.55 77.3H173.35C171.75 77.3 170.35 77.9 169.15 79.1C168.05 80.2 167.5 81.55 167.5 83.15V96.5C167.5 98.1 168.05 99.5 169.15 100.7C170.35 101.8 171.75 102.35 173.35 102.35H225.55C228.95 102.35 232 103.2 234.7 104.9C237.5 106.5 239.7 108.7 241.3 111.5C243 114.2 243.85 117.2 243.85 120.5V133.85C243.85 137.15 243 140.2 241.3 143C239.7 145.7 237.5 147.9 234.7 149.6C232 151.2 228.95 152 225.55 152H173.35Z" fill="white"/>
</svg>
